<svg width="60" height="60" viewBox="0 0 60 60" fill="none" xmlns="http://www.w3.org/2000/svg">
<mask id="mask0_2_47" style="mask-type:alpha" maskUnits="userSpaceOnUse" x="0" y="0" width="60" height="60">
<rect width="60" height="60" fill="black"/>
</mask>
<g mask="url(#mask0_2_47)">
<path d="M11.9898 17.335H10.0998C9.6798 17.335 9.34147 17.4167 9.0848 17.58C8.85147 17.7433 8.6648 17.9533 8.5248 18.21C8.3848 18.4433 8.29147 18.7117 8.2448 19.015C8.22147 19.3183 8.2098 19.61 8.2098 19.89V25.21C8.2098 26.0733 8.0698 26.7733 7.7898 27.31C7.53313 27.8233 7.21813 28.2317 6.8448 28.535C6.4948 28.815 6.12147 29.0133 5.7248 29.13C5.32813 29.2467 5.00147 29.3167 4.7448 29.34V29.445C5.00147 29.4683 5.32813 29.55 5.7248 29.69C6.12147 29.8067 6.4948 30.0167 6.8448 30.32C7.21813 30.6 7.53313 30.985 7.7898 31.475C8.0698 31.9417 8.2098 32.5483 8.2098 33.295V38.895C8.2098 39.1517 8.22147 39.4317 8.2448 39.735C8.29147 40.0383 8.3848 40.3067 8.5248 40.54C8.6648 40.7967 8.85147 41.0067 9.0848 41.17C9.34147 41.3333 9.6798 41.415 10.0998 41.415H11.9898V45.335H7.5448C7.14813 45.335 6.69313 45.23 6.1798 45.02C5.6898 44.8333 5.22313 44.5417 4.7798 44.145C4.3598 43.7717 3.99813 43.2817 3.6948 42.675C3.39147 42.0917 3.2398 41.4033 3.2398 40.61V33.82C3.2398 33.2833 3.12313 32.8283 2.8898 32.455C2.65647 32.0817 2.37647 31.79 2.0498 31.58C1.72313 31.3467 1.37313 31.1833 0.999801 31.09C0.626467 30.9733 0.311467 30.915 0.0548007 30.915V27.87C0.311467 27.87 0.626467 27.8233 0.999801 27.73C1.37313 27.6133 1.72313 27.4383 2.0498 27.205C2.37647 26.9483 2.65647 26.6217 2.8898 26.225C3.12313 25.805 3.2398 25.3033 3.2398 24.72V18.14C3.2398 17.3467 3.39147 16.6583 3.6948 16.075C3.99813 15.4683 4.3598 14.9783 4.7798 14.605C5.22313 14.2083 5.6898 13.9167 6.1798 13.73C6.69313 13.52 7.14813 13.415 7.5448 13.415H11.9898V17.335ZM19.6313 33.61H25.1263V39H19.6313V33.61ZM27.2725 33.61H32.7675V39H27.2725V33.61ZM34.9137 33.61H40.4087V39H34.9137V33.61ZM48.0961 41.415H49.9861C50.4061 41.415 50.7328 41.3333 50.9661 41.17C51.2228 41.0067 51.4211 40.7967 51.5611 40.54C51.7011 40.3067 51.7828 40.0383 51.8061 39.735C51.8528 39.4317 51.8761 39.1517 51.8761 38.895V33.295C51.8761 32.5483 52.0045 31.9417 52.2611 31.475C52.5411 30.985 52.8561 30.6 53.2061 30.32C53.5795 30.0167 53.9645 29.8067 54.3611 29.69C54.7578 29.55 55.0845 29.4683 55.3411 29.445V29.34C55.0845 29.3167 54.7578 29.2467 54.3611 29.13C53.9645 29.0133 53.5795 28.815 53.2061 28.535C52.8561 28.2317 52.5411 27.8233 52.2611 27.31C52.0045 26.7733 51.8761 26.0733 51.8761 25.21V19.89C51.8761 19.61 51.8528 19.3183 51.8061 19.015C51.7828 18.7117 51.7011 18.4433 51.5611 18.21C51.4211 17.9533 51.2228 17.7433 50.9661 17.58C50.7328 17.4167 50.4061 17.335 49.9861 17.335H48.0961V13.415H52.5411C52.9378 13.415 53.3811 13.52 53.8711 13.73C54.3845 13.9167 54.8511 14.2083 55.2711 14.605C55.7145 14.9783 56.0878 15.4683 56.3911 16.075C56.6945 16.6583 56.8461 17.3467 56.8461 18.14V24.72C56.8461 25.3033 56.9628 25.805 57.1961 26.225C57.4295 26.6217 57.7095 26.9483 58.0361 27.205C58.3628 27.4383 58.7128 27.6133 59.0861 27.73C59.4595 27.8233 59.7861 27.87 60.0661 27.87V30.915C59.7861 30.915 59.4595 30.9733 59.0861 31.09C58.7128 31.1833 58.3628 31.3467 58.0361 31.58C57.7095 31.79 57.4295 32.0817 57.1961 32.455C56.9628 32.8283 56.8461 33.2833 56.8461 33.82V40.61C56.8461 41.4033 56.6945 42.0917 56.3911 42.675C56.0878 43.2817 55.7145 43.7717 55.2711 44.145C54.8511 44.5417 54.3845 44.8333 53.8711 45.02C53.3811 45.23 52.9378 45.335 52.5411 45.335H48.0961V41.415Z" fill="black"/>
</g>
</svg>
