<svg width="60" height="60" viewBox="0 0 60 60" fill="none" xmlns="http://www.w3.org/2000/svg">
<mask id="mask0_2_43" style="mask-type:alpha" maskUnits="userSpaceOnUse" x="0" y="0" width="60" height="60">
<rect width="60" height="60" fill="black"/>
</mask>
<g mask="url(#mask0_2_43)">
<path d="M-0.137769 29.345C0.108898 29.345 0.429564 29.308 0.824231 29.234C1.2189 29.16 1.60123 29.0243 1.97123 28.827C2.34123 28.605 2.6619 28.3213 2.93323 27.976C3.20456 27.6307 3.34023 27.1867 3.34023 26.644V19.022C3.34023 18.1587 3.5129 17.4063 3.85823 16.765C4.20356 16.1237 4.6229 15.5933 5.11623 15.174C5.60956 14.7547 6.12756 14.4463 6.67023 14.249C7.2129 14.0517 7.68156 13.953 8.07623 13.953H11.4432V17.283H9.40823C8.93956 17.283 8.56956 17.3693 8.29823 17.542C8.0269 17.69 7.81723 17.8997 7.66923 18.171C7.52123 18.4177 7.42256 18.7013 7.37323 19.022C7.34856 19.318 7.33623 19.6017 7.33623 19.873V27.088C7.33623 27.828 7.18823 28.4447 6.89223 28.938C6.59623 29.4313 6.23856 29.826 5.81923 30.122C5.42456 30.3933 5.00523 30.603 4.56123 30.751C4.1419 30.8743 3.78423 30.9483 3.48823 30.973V31.047C3.78423 31.0717 4.1419 31.1333 4.56123 31.232C5.00523 31.3307 5.42456 31.528 5.81923 31.824C6.23856 32.0953 6.59623 32.5023 6.89223 33.045C7.18823 33.563 7.33623 34.266 7.33623 35.154V42.147C7.33623 42.4183 7.34856 42.702 7.37323 42.998C7.42256 43.3187 7.52123 43.6023 7.66923 43.849C7.81723 44.1203 8.0269 44.33 8.29823 44.478C8.56956 44.6507 8.93956 44.737 9.40823 44.737H11.4432V48.067H8.07623C7.68156 48.067 7.2129 47.9683 6.67023 47.771C6.12756 47.5737 5.60956 47.2653 5.11623 46.846C4.6229 46.4267 4.20356 45.8963 3.85823 45.255C3.5129 44.6137 3.34023 43.8613 3.34023 42.998V35.672C3.34023 35.08 3.20456 34.5867 2.93323 34.192C2.6619 33.7973 2.34123 33.489 1.97123 33.267C1.60123 33.045 1.2189 32.897 0.824231 32.823C0.429564 32.7243 0.108898 32.675 -0.137769 32.675V29.345ZM19.3693 36.005H24.5123V41H19.3693V36.005ZM27.4472 36.005H32.5902V41H27.4472V36.005ZM35.525 36.005H40.668V41H35.525V36.005ZM60.2277 32.675C59.9564 32.675 59.6234 32.7243 59.2287 32.823C58.8341 32.897 58.4517 33.0327 58.0817 33.23C57.7117 33.4273 57.3911 33.6987 57.1197 34.044C56.8731 34.3893 56.7497 34.8333 56.7497 35.376V42.998C56.7497 43.8613 56.5771 44.6137 56.2317 45.255C55.8864 45.8963 55.4671 46.4267 54.9737 46.846C54.4804 47.2653 53.9624 47.5737 53.4197 47.771C52.8771 47.9683 52.4084 48.067 52.0137 48.067H48.6467V44.737H50.6817C51.1504 44.737 51.5204 44.6507 51.7917 44.478C52.0631 44.33 52.2727 44.1203 52.4207 43.849C52.5687 43.6023 52.6551 43.3187 52.6797 42.998C52.7291 42.702 52.7537 42.4183 52.7537 42.147V34.932C52.7537 34.192 52.9017 33.5753 53.1977 33.082C53.4937 32.5887 53.8391 32.2063 54.2337 31.935C54.6531 31.639 55.0724 31.4293 55.4917 31.306C55.9357 31.1827 56.3057 31.0963 56.6017 31.047V30.973C56.3057 30.9483 55.9357 30.8867 55.4917 30.788C55.0724 30.6893 54.6531 30.5043 54.2337 30.233C53.8391 29.937 53.4937 29.53 53.1977 29.012C52.9017 28.4693 52.7537 27.754 52.7537 26.866V19.873C52.7537 19.6017 52.7291 19.318 52.6797 19.022C52.6551 18.7013 52.5687 18.4177 52.4207 18.171C52.2727 17.8997 52.0631 17.69 51.7917 17.542C51.5204 17.3693 51.1504 17.283 50.6817 17.283H48.6467V13.953H52.0137C52.4084 13.953 52.8771 14.0517 53.4197 14.249C53.9624 14.4463 54.4804 14.7547 54.9737 15.174C55.4671 15.5933 55.8864 16.1237 56.2317 16.765C56.5771 17.4063 56.7497 18.1587 56.7497 19.022V26.348C56.7497 26.94 56.8731 27.4333 57.1197 27.828C57.3911 28.2227 57.7117 28.531 58.0817 28.753C58.4517 28.975 58.8341 29.1353 59.2287 29.234C59.6234 29.308 59.9564 29.345 60.2277 29.345V32.675Z" fill="black"/>
</g>
</svg>
